# xmcd
#
# Track frame offsets:
#	150
#	15285
#	33578
#	47251
#	70459
#	88529
#	105235
#	121893
#	138317
#	154203
#	174548
#	190380
#	214461
#
# Disc length: 3162 seconds
# Revision: 0
# Processed by: cddbd v1.5.2PL0 Copyright (c) Steve Scherf et al.
# Submitted via: dBpowerAMP V12.0
#
DISCID=aa0c580d
DTITLE=Sadie and The Hotheads - How Not To Lose
DYEAR=2012
DGENRE=Country
TTITLE0=All The Time
TTITLE1=The Cow Song
TTITLE2=How Not To Lose Things
TTITLE3=My Debt Collector
TTITLE4=LA Days
TTITLE5=Nothing New
TTITLE6=Superficial
TTITLE7=Old Boyfriend
TTITLE8=Drops Of Rain
TTITLE9=The Wedding Song
TTITLE10=Small Tasks
TTITLE11=Use It Up
TTITLE12=Open Mic Blues
EXTD=
EXTT0=
EXTT1=
EXTT2=
EXTT3=
EXTT4=
EXTT5=
EXTT6=
EXTT7=
EXTT8=
EXTT9=
EXTT10=
EXTT11=
EXTT12=
PLAYORDER=
